<svg xmlns="http://www.w3.org/2000/svg" viewBox="0 0 250.82 196">
  <defs>
    <style>
      .cls-1, .cls-2 {
        fill: none;
        stroke-linecap: round;
        stroke-linejoin: round;
        stroke-width: 6px;
      }

      .cls-1 {
        stroke: #fff;
      }

      .cls-2 {
        stroke: #0095ae;
      }
    </style>
  </defs>
  <title>Asset 10</title>
  <g id="Layer_2" data-name="Layer 2">
    <g id="Layer_1-2" data-name="Layer 1">
      <g>
        <line class="cls-1" x1="3" y1="193" x2="247.82" y2="193"/>
        <rect class="cls-1" x="161.04" y="102.84" width="70.58" height="89.7"/>
        <g>
          <rect class="cls-1" x="170.22" y="96.63" width="12.42" height="6.21"/>
          <rect class="cls-1" x="210.24" y="96.63" width="12.42" height="6.21"/>
        </g>
        <polyline class="cls-1" points="81.78 33.15 216.45 33.15 216.45 95.02"/>
        <line class="cls-1" x1="176.43" y1="33.84" x2="176.43" y2="95.02"/>
        <g>
          <line class="cls-1" x1="176.43" y1="114.11" x2="176.43" y2="123.54"/>
          <line class="cls-1" x1="171.6" y1="118.71" x2="181.03" y2="118.71"/>
        </g>
        <line class="cls-1" x1="211.62" y1="118.71" x2="221.05" y2="118.71"/>
        <g>
          <polyline class="cls-2" points="196.92 149.58 199.5 130.86 184.16 156.46 195.77 158.04"/>
          <polyline class="cls-2" points="195.8 158.04 193.22 176.79 208.56 151.19 196.95 149.58"/>
        </g>
        <g>
          <rect class="cls-1" x="17.35" y="38.44" width="82.65" height="154.56"/>
          <g>
            <line class="cls-2" x1="54.21" y1="3" x2="54.21" y2="28.32"/>
            <line class="cls-2" x1="63.2" y1="22.48" x2="63.2" y2="28.32"/>
          </g>
          <rect class="cls-1" x="35.99" y="28.32" width="45.42" height="9.66"/>
          <line class="cls-1" x1="35.99" y1="64.43" x2="81.39" y2="64.43"/>
          <line class="cls-1" x1="35.99" y1="86.3" x2="81.39" y2="86.3"/>
          <line class="cls-1" x1="35.99" y1="108.18" x2="81.39" y2="108.18"/>
          <line class="cls-1" x1="35.99" y1="130.05" x2="81.39" y2="130.05"/>
          <line class="cls-1" x1="35.99" y1="151.92" x2="81.39" y2="151.92"/>
          <line class="cls-1" x1="35.99" y1="173.8" x2="81.39" y2="173.8"/>
        </g>
      </g>
    </g>
  </g>
</svg>
