<svg xmlns="http://www.w3.org/2000/svg" viewBox="0 0 225.08 196">
  <defs>
    <style>
      .cls-1, .cls-2 {
        fill: none;
        stroke-linecap: round;
        stroke-linejoin: round;
        stroke-width: 6px;
      }

      .cls-1 {
        stroke: #fff;
      }

      .cls-2 {
        stroke: #0095ae;
      }
    </style>
  </defs>
  <title>Asset 11</title>
  <g id="Layer_2" data-name="Layer 2">
    <g id="Layer_1-2" data-name="Layer 1">
      <g>
        <line class="cls-1" x1="3" y1="193" x2="222.08" y2="193"/>
        <rect class="cls-1" x="19.95" y="81.71" width="76.66" height="110.86"/>
        <rect class="cls-1" x="131.74" y="112.61" width="76.66" height="79.95"/>
        <g>
          <circle class="cls-1" cx="170.77" cy="28.94" r="8.91"/>
          <line class="cls-1" x1="170.79" y1="3" x2="170.79" y2="12.8"/>
          <line class="cls-1" x1="170.79" y1="44.6" x2="170.7" y2="54.4"/>
          <g>
            <line class="cls-1" x1="152.56" y1="10.54" x2="159.53" y2="17.53"/>
            <line class="cls-1" x1="182" y1="39.94" x2="188.93" y2="46.99"/>
          </g>
          <g>
            <line class="cls-1" x1="145.09" y1="28.7" x2="154.89" y2="28.7"/>
            <line class="cls-1" x1="186.69" y1="28.7" x2="196.49" y2="28.79"/>
          </g>
          <g>
            <line class="cls-1" x1="152.56" y1="46.95" x2="159.53" y2="39.98"/>
            <line class="cls-1" x1="181.96" y1="17.48" x2="188.99" y2="10.58"/>
          </g>
        </g>
        <g>
          <line class="cls-1" x1="38.89" y1="44.03" x2="38.89" y2="81.71"/>
          <line class="cls-1" x1="77.88" y1="63.41" x2="77.88" y2="81.71"/>
        </g>
        <g>
          <line class="cls-1" x1="151.84" y1="75.61" x2="151.84" y2="112.63"/>
          <line class="cls-1" x1="189.74" y1="94.34" x2="189.74" y2="112.63"/>
        </g>
        <line class="cls-2" x1="45.45" y1="38.41" x2="45.45" y2="41.61"/>
        <line class="cls-2" x1="71.3" y1="51.17" x2="71.3" y2="54.66"/>
        <line class="cls-2" x1="158.72" y1="70.01" x2="158.72" y2="73.1"/>
        <line class="cls-2" x1="184.51" y1="82.73" x2="184.51" y2="85.65"/>
        <polygon class="cls-2" points="89.2 68.36 27.35 37.84 27.35 29.52 89.2 60.06 89.2 68.36"/>
        <polygon class="cls-2" points="201.71 99.52 139.86 69.01 139.86 60.69 201.71 91.22 201.71 99.52"/>
        <line class="cls-1" x1="38.89" y1="99.11" x2="77.88" y2="99.11"/>
        <line class="cls-1" x1="151.29" y1="127.88" x2="190.28" y2="127.88"/>
        <line class="cls-1" x1="151.29" y1="149.35" x2="190.28" y2="149.35"/>
        <line class="cls-1" x1="151.29" y1="170.81" x2="190.28" y2="170.81"/>
        <line class="cls-1" x1="38.89" y1="124.22" x2="77.88" y2="124.22"/>
        <line class="cls-1" x1="38.89" y1="149.35" x2="77.88" y2="149.35"/>
        <line class="cls-1" x1="38.89" y1="174.47" x2="77.88" y2="174.47"/>
      </g>
    </g>
  </g>
</svg>
